<svg id="visual" viewBox="0 0 1980 1080" width="1980" height="1080" xmlns="http://www.w3.org/2000/svg" xmlns:xlink="http://www.w3.org/1999/xlink" version="1.1"><rect x="0" y="0" width="1980" height="1080" fill="#1c1c1c"></rect><path d="M0 649L283 729L566 683L849 761L1131 677L1414 790L1697 720L1980 654L1980 1081L1697 1081L1414 1081L1131 1081L849 1081L566 1081L283 1081L0 1081Z" fill="#453178"></path><path d="M0 818L283 729L566 848L849 745L1131 726L1414 796L1697 740L1980 808L1980 1081L1697 1081L1414 1081L1131 1081L849 1081L566 1081L283 1081L0 1081Z" fill="#523a8e"></path><path d="M0 878L283 868L566 893L849 874L1131 801L1414 846L1697 822L1980 889L1980 1081L1697 1081L1414 1081L1131 1081L849 1081L566 1081L283 1081L0 1081Z" fill="#5f44a5"></path><path d="M0 899L283 878L566 918L849 965L1131 888L1414 958L1697 896L1980 947L1980 1081L1697 1081L1414 1081L1131 1081L849 1081L566 1081L283 1081L0 1081Z" fill="#6c4dbd"></path><path d="M0 1002L283 979L566 970L849 985L1131 996L1414 961L1697 991L1980 1001L1980 1081L1697 1081L1414 1081L1131 1081L849 1081L566 1081L283 1081L0 1081Z" fill="#7a57d5"></path></svg>